<?xml version="1.0" encoding="utf-8"?>
<!-- Uploaded to: SVG Repo, www.svgrepo.com, Generator: SVG Repo Mixer Tools -->
<svg width="800px" height="800px" viewBox="0 0 1024 1024" class="icon"  version="1.1" xmlns="http://www.w3.org/2000/svg"><path d="M336.3 340.2a175.7 212.9 0 1 0 351.4 0 175.7 212.9 0 1 0-351.4 0Z" fill="#00B36A" /><path d="M512 574.7c-53.5 0-103.5-24.9-140.9-70.2-36.4-44.1-56.4-102.4-56.4-164.3 0-61.9 20-120.2 56.4-164.3 37.4-45.3 87.4-70.2 140.9-70.2s103.5 24.9 140.9 70.2c36.4 44.1 56.4 102.4 56.4 164.3 0 61.9-20 120.2-56.4 164.3-37.4 45.3-87.4 70.2-140.9 70.2z m0-425.7c-85 0-154.1 85.8-154.1 191.3 0 105.5 69.1 191.3 154.1 191.3s154.1-85.8 154.1-191.3C666.1 234.8 597 149 512 149z" fill="#1A1A1A" /><path d="M939.9 782.4c0 65.6-107.6 114.2-427.9 114.2-239.9 0-427.9-43.2-427.9-101.5 0-98.9 194.4-179.1 434.3-179.1h-12.9c239.9 0 434.3 80.2 434.3 179.1 0 58.4-188 101.5-427.9 101.5C191.7 896.6 84 848 84 782.4" fill="#00B36A" /><path d="M512 918.2c-152.8 0-267.3-11.2-340.3-33.4-35.8-10.9-62.1-24.3-80.3-40.9-19.1-17.5-28.9-38.2-28.9-61.5 0-11.9 9.7-21.6 21.6-21.6s21.6 9.7 21.6 21.6c0 24.7 26.4 45.2 78.5 61 68.9 21 179.2 31.6 327.8 31.6 11.9 0 21.6 9.7 21.6 21.6s-9.7 21.6-21.6 21.6z" fill="#1A1A1A" /><path d="M107.8 829.6c46.7 40.4 167.2 67 404.2 67 7.3 0 14.4 0 21.5-0.1-201.9-62.2-292.8-64.2-364.5-207.8-47.7 26.6-77.9 58.8-83.8 93.7h-1.1c0 2 0.1 4.1 0.3 6.1-0.2 2.2-0.3 4.3-0.3 6.5 0 12.3 8.4 23.9 23.7 34.6z" fill="#009957" /><path d="M512 918.2c-118.3 0-228-10.5-308.8-29.5-41.1-9.7-73.6-21.3-96.7-34.5-29.2-16.7-44-36.7-44-59.2 0-57.1 49.9-109.2 140.6-146.6 81.5-33.6 188.5-52.7 302.4-54v-0.1h12.9v0.1c111.6 1.3 216.9 19.7 297.8 52.1 11.1 4.4 16.4 17 12 28.1-4.4 11.1-17 16.4-28.1 12-77.5-31.1-179.6-48.4-288.2-49.1-110.8 0.7-214.5 18.7-292.4 50.8C147.1 718.1 105.7 757 105.7 795c0 7.3 19.3 31 107.3 51.6C290.8 865 396.9 875 512 875c188.5 0 314-16.8 373-50 33.3-18.7 33.3-36.7 33.3-42.6 0-11.9 9.7-21.6 21.6-21.6s21.6 9.7 21.6 21.6c0 22.4-9.6 54.5-55.3 80.2-66.5 37.4-195.4 55.6-394.2 55.6z" fill="#1A1A1A" /></svg>